<?xml version="1.0" standalone="no"?><!DOCTYPE svg PUBLIC "-//W3C//DTD SVG 1.1//EN" "http://www.w3.org/Graphics/SVG/1.1/DTD/svg11.dtd"><svg t="1627446833499" class="icon" viewBox="0 0 1024 1024" version="1.1" xmlns="http://www.w3.org/2000/svg" p-id="1296" xmlns:xlink="http://www.w3.org/1999/xlink" width="200" height="200"><defs><style type="text/css">@font-face { font-family: feedback-iconfont; src: url("//at.alicdn.com/t/font_1031158_1uhr8ri0pk5.eot?#iefix") format("embedded-opentype"), url("//at.alicdn.com/t/font_1031158_1uhr8ri0pk5.woff2") format("woff2"), url("//at.alicdn.com/t/font_1031158_1uhr8ri0pk5.woff") format("woff"), url("//at.alicdn.com/t/font_1031158_1uhr8ri0pk5.ttf") format("truetype"), url("//at.alicdn.com/t/font_1031158_1uhr8ri0pk5.svg#iconfont") format("svg"); }
</style></defs><path d="M562.873 99.366a31.976 31.976 0 0 1 27.132-9.044l276.973 39.567a31.976 31.976 0 0 1 27.133 27.133l39.567 276.973a31.976 31.976 0 0 1-9.044 27.132L461.127 924.635c-12.487 12.487-32.733 12.487-45.22 0L99.365 608.093c-12.487-12.487-12.487-32.733 0-45.22L562.873 99.366z m39.567 73.483L189.806 585.483l248.711 248.711L851.151 421.56l-31.088-217.623L602.44 172.85z m16.958 118.703c31.218-31.218 81.832-31.218 113.05 0 31.218 31.218 31.218 81.832 0 113.05-31.218 31.218-81.832 31.218-113.05 0-31.218-31.218-31.218-81.832 0-113.05z" p-id="1297"></path></svg>