<?xml version="1.0" standalone="no"?><!DOCTYPE svg PUBLIC "-//W3C//DTD SVG 1.1//EN" "http://www.w3.org/Graphics/SVG/1.1/DTD/svg11.dtd"><svg t="1630248281990" class="icon" viewBox="0 0 1024 1024" version="1.1" xmlns="http://www.w3.org/2000/svg" p-id="594" xmlns:xlink="http://www.w3.org/1999/xlink" width="200" height="200"><defs><style type="text/css"></style></defs><path d="M737.586861 972.690032l-471.07771-443.211728c-1.326999-1.326999-1.768999-3.095998-1.768999-3.980997s0-2.653998 1.326999-3.980998L709.278879 49.995599c11.499993-11.942993 10.615993-30.962981-1.327-42.020974s-30.962981-10.615993-42.020974 1.326999l-443.211727 471.07771c-11.942993 12.826992-18.134989 29.193982-17.692989 46.886972 0.442 17.250989 7.961995 33.616979 20.346987 45.559972L696.893886 1016.038005C702.64388301 1021.346002 710.163878 1024 717.240874 1023.999c7.96199501 0 15.92399-3.095998 21.673986-9.288994 11.499993-11.942993 10.615993-30.962981-1.326999-42.020974z" p-id="595"></path></svg>