<?xml version="1.0" standalone="no"?><!DOCTYPE svg PUBLIC "-//W3C//DTD SVG 1.1//EN" "http://www.w3.org/Graphics/SVG/1.1/DTD/svg11.dtd"><svg t="1630224230297" class="icon" viewBox="0 0 1024 1024" version="1.1" xmlns="http://www.w3.org/2000/svg" p-id="2155" xmlns:xlink="http://www.w3.org/1999/xlink" width="200" height="200"><defs><style type="text/css"></style></defs><path d="M286.413 51.31l471.078 443.212c1.327 1.327 1.769 3.096 1.769 3.981s0 2.654-1.327 3.981l-443.212 471.521c-11.5 11.943-10.616 30.963 1.327 42.021s30.963 10.616 42.021-1.327l443.212-471.078c11.943-12.827 18.135-29.194 17.693-46.887-0.442-17.251-7.962-33.617-20.347-45.56l-471.521-443.212c-5.75-5.308-13.27-7.962-20.347-7.961-7.962 0-15.924 3.096-21.674 9.289-11.5 11.943-10.616 30.963 1.327 42.021z" p-id="2156"></path></svg>